<?xml version="1.0" encoding="UTF-8" standalone="no"?>
<svg
   xmlns:osb="http://www.openswatchbook.org/uri/2009/osb"
   xmlns:dc="http://purl.org/dc/elements/1.1/"
   xmlns:cc="http://creativecommons.org/ns#"
   xmlns:rdf="http://www.w3.org/1999/02/22-rdf-syntax-ns#"
   xmlns:svg="http://www.w3.org/2000/svg"
   xmlns="http://www.w3.org/2000/svg"
   xmlns:xlink="http://www.w3.org/1999/xlink"
   xmlns:sodipodi="http://sodipodi.sourceforge.net/DTD/sodipodi-0.dtd"
   xmlns:inkscape="http://www.inkscape.org/namespaces/inkscape"
   width="793.70081"
   height="1122.5197"
   viewBox="0 0 210 297"
   version="1.1"
   id="svg1859"
   inkscape:version="1.0 (4035a4fb49, 2020-05-01)"
   sodipodi:docname="brane tree 3 done1 no hart.svg">
  <defs
     id="defs1853">
    <linearGradient
       osb:paint="gradient"
       id="linearGradient3024">
      <stop
         id="stop3020"
         offset="0"
         style="stop-color:#ff00b9;stop-opacity:1;" />
      <stop
         id="stop3022"
         offset="1"
         style="stop-color:#ff00b9;stop-opacity:0;" />
    </linearGradient>
    <linearGradient
       id="linearGradient1075"
       inkscape:collect="always">
      <stop
         id="stop1071"
         offset="0"
         style="stop-color:#0000ff;stop-opacity:1;" />
      <stop
         id="stop1073"
         offset="1"
         style="stop-color:#00ff00;stop-opacity:1" />
    </linearGradient>
    <linearGradient
       id="linearGradient3017"
       osb:paint="solid">
      <stop
         style="stop-color:#000000;stop-opacity:1;"
         offset="0"
         id="stop3015" />
    </linearGradient>
    <linearGradient
       id="linearGradient3011"
       osb:paint="solid">
      <stop
         style="stop-color:#0000ff;stop-opacity:1;"
         offset="0"
         id="stop3009" />
    </linearGradient>
    <linearGradient
       gradientTransform="matrix(0.03188155,0,0,0.03188155,766.02039,572.83377)"
       gradientUnits="userSpaceOnUse"
       y2="-15186.461"
       x2="-19027.904"
       y1="-12156.86"
       x1="-24530.195"
       id="linearGradient1077"
       xlink:href="#linearGradient1075"
       inkscape:collect="always" />
  </defs>
  <sodipodi:namedview
     id="base"
     pagecolor="#ffffff"
     bordercolor="#666666"
     borderopacity="1.0"
     inkscape:pageopacity="0.0"
     inkscape:pageshadow="2"
     inkscape:zoom="0.70710678"
     inkscape:cx="342.06482"
     inkscape:cy="569.9856"
     inkscape:document-units="mm"
     inkscape:current-layer="layer1"
     inkscape:document-rotation="0"
     showgrid="false"
     units="px"
     showborder="true"
     inkscape:object-paths="true"
     inkscape:snap-intersection-paths="true"
     inkscape:snap-smooth-nodes="true"
     inkscape:window-width="1274"
     inkscape:window-height="1009"
     inkscape:window-x="286"
     inkscape:window-y="15"
     inkscape:window-maximized="0"
     inkscape:snap-global="true"
     inkscape:snap-bbox="false"
     inkscape:snap-midpoints="false" />
  <metadata
     id="metadata1856">
    <rdf:RDF>
      <cc:Work
         rdf:about="">
        <dc:format>image/svg+xml</dc:format>
        <dc:type
           rdf:resource="http://purl.org/dc/dcmitype/StillImage" />
        <dc:title />
      </cc:Work>
    </rdf:RDF>
  </metadata>
  <g
     inkscape:label="Layer 1"
     inkscape:groupmode="layer"
     id="layer1">
    <path
       d="M 84.587262,57.286078 A 18.074583,18.074583 0 0 0 67.17187,70.524222 c -0.972704,2.82392 -11.797966,3.451674 -17.700009,9.621133 A 18.074583,18.074583 0 0 0 44.24068,94.430518 18.074583,18.074583 0 0 0 31.397258,111.7315 l 12.04972,7e-5 a 6.0248613,6.0248613 0 0 1 6.024883,-6.02486 c 3.389666,3.38962 15.154814,5.85433 16.493297,0.12284 0.134399,-1.29984 -6.859608,-7.365951 -7.97283,-8.643331 a 6.0248613,6.0248613 0 0 1 0,-8.520466 c 6.911712,-5.003111 9.812827,-5.728276 11.053309,-4.077571 a 18.074583,18.074583 0 0 0 2.760937,3.553143 c 2.912673,2.77492 13.212464,2.066322 14.074023,-1.667613 0.521391,-3.403264 -2.112557,-3.735159 -5.553534,-6.852854 a 6.0248613,6.0248613 0 0 1 -1.764639,-4.260176 6.0248613,6.0248613 0 0 1 6.024838,-6.02486 6.0248613,6.0248613 0 0 1 6.024887,6.02486 h 6.8e-5 v 18.227361 c -4.793675,0 -14.85565,6.576437 -11.749356,11.575697 0.824095,1.01418 10.058916,0.35803 11.749356,0.47411 v 44.41971 c -1.69044,0.11605 -10.925261,-0.54006 -11.749356,0.4741 -3.106294,4.99923 6.955681,11.57562 11.749356,11.57562 v 20.88897 a 6.0248613,6.0248613 0 0 1 -6.024887,6.02482 6.0248613,6.0248613 0 0 1 -6.024861,-6.0245 v 0 c -0.116041,-1.69044 0.540021,-10.92529 -0.474181,-11.74934 -4.999099,-3.10627 -11.575313,6.95524 -11.575607,11.74902 a 6.0248613,6.0248613 0 0 1 -8.520467,0 6.0248613,6.0248613 0 0 1 0,-8.52049 c 1.1132,-1.27736 8.107207,-7.34343 7.972808,-8.64331 -1.338483,-5.73148 -13.103677,-3.26678 -16.493274,0.12284 a 6.0248613,6.0248613 0 0 1 -6.024906,-6.02486 l -12.04972,4e-5 a 18.074583,18.074583 0 0 0 12.843422,17.30099 18.074583,18.074583 0 0 0 5.231204,14.28517 h 4.5e-5 a 18.074583,18.074583 0 0 0 21.31532,3.15207 18.074583,18.074583 0 0 1 -0.02652,-0.0315 18.074582,18.074582 0 0 0 13.82662,6.43354 18.074582,18.074582 0 0 0 6.024888,-1.03367 v 11.70235 a 6.0248613,6.0248613 0 0 1 -6.024888,6.02483 v -4e-5 c -4.793647,2e-5 -14.855736,6.57648 -11.749419,11.57567 0.824117,1.01423 10.059006,0.35805 11.749419,0.47414 a 18.074583,18.074583 0 0 0 18.074607,-18.0746 V 75.360614 h -6e-5 A 18.074583,18.074583 0 0 0 84.587148,57.28601 Z M 43.446978,159.93045 a 6.0248613,6.0248613 0 0 1 6.024883,-6.02488 c 1.690436,-0.11604 13.014924,-0.15276 18.051623,-5.63588 1.981603,-3.23296 -13.257952,-6.41389 -18.051623,-6.41391 v 5e-5 a 18.074583,18.074583 0 0 0 -0.06391,0 18.074583,18.074583 0 0 1 0.05938,0 c -7.445819,0 -5.934158,4e-5 -7.45663,0 -3.327429,4e-5 -6.024837,-2.69735 -6.024837,-6.0248 0,-3.32745 2.697408,-6.02486 6.024837,-6.02486 1.516737,0 0.07638,0 7.429251,0 a 18.074583,18.074583 0 0 0 0.03196,5e-5 v 7e-5 c 1.666683,0 6.169617,-0.59755 11.326187,-1.62478 2.139913,4.28959 12.515856,10.35788 15.60284,5.34677 0.396919,-0.87525 -2.04189,-5.412 -3.620682,-8.37678 5.435341,-1.76568 9.619343,-3.90614 9.545593,-6.19167 0.0091,-6.67242 -21.602339,-1.40568 -32.853938,-1.20333 a 6.0248613,6.0248613 0 0 1 -6.024888,-6.02489 H 31.397303 a 18.074583,18.074583 0 0 0 1.977886,8.2213 18.074583,18.074583 0 0 0 0.0019,0.002 18.074583,18.074583 0 0 1 -0.0012,-0.001 c 0,-0.001 -0.0012,-0.001 -0.0012,-0.002 -5.81737,3.164 -9.438754,9.2559 -9.4388,15.87803 0,6.62227 3.621521,12.71428 9.439071,15.87821 a 18.074583,18.074583 0 0 0 -1.977977,8.22128 z M 33.374963,119.95296 c 6.8e-5,-5e-5 0,-7e-5 0,-9e-5 v 0 c 0,0 0,0 0,0 z M 132.78628,57.286078 a 18.074583,18.074583 0 0 0 -18.0746,18.074604 h -7e-5 V 211.73948 a 18.074583,18.074583 0 0 0 18.07461,18.07461 c 1.69043,-0.11604 10.92532,0.54009 11.74942,-0.47414 3.10629,-4.99919 -6.95573,-11.57565 -11.74942,-11.57567 v 4e-5 a 6.0248613,6.0248613 0 0 1 -6.02489,-6.02484 v -11.70234 a 18.074583,18.074583 0 0 0 6.02489,1.03367 18.074583,18.074583 0 0 0 13.82662,-6.43354 18.074583,18.074583 0 0 1 -0.0265,0.0315 18.074583,18.074583 0 0 0 21.31534,-3.15208 h 7e-5 a 18.074583,18.074583 0 0 0 5.2312,-14.28516 18.074583,18.074583 0 0 0 12.84338,-17.30099 l -12.04972,-5e-5 a 6.0248613,6.0248613 0 0 1 -6.02486,6.02486 c -3.38964,-3.38964 -15.15484,-5.85433 -16.49332,-0.12284 -0.1344,1.29989 6.85961,7.36595 7.97283,8.64332 a 6.0248613,6.0248613 0 0 1 0,8.52049 6.0248613,6.0248613 0 0 1 -8.52046,0 c 0,-4.79379 -6.57654,-14.85529 -11.57561,-11.74902 -1.01423,0.82405 -0.35814,10.0589 -0.47418,11.74934 v 0 a 6.0248613,6.0248613 0 0 1 -6.02489,6.02449 6.0248613,6.0248613 0 0 1 -6.02488,-6.02481 v -20.88897 c 4.79367,0 14.85569,-6.57639 11.74937,-11.57563 -0.82411,-1.01415 -10.05893,-0.35802 -11.74937,-0.47409 v -44.41971 c 1.69044,-0.11604 10.92526,0.54007 11.74937,-0.47411 3.10632,-4.99926 -6.9557,-11.575699 -11.74937,-11.575699 V 75.36075 h 7e-5 a 6.0248613,6.0248613 0 0 1 6.02488,-6.02486 6.0248613,6.0248613 0 0 1 6.02484,6.02486 6.0248613,6.0248613 0 0 1 -1.76462,4.260176 c -3.441,3.117695 -6.07494,3.44959 -5.55353,6.852854 0.86156,3.733935 11.16133,4.442533 14.07402,1.667613 a 18.074583,18.074583 0 0 0 2.76092,-3.553143 c 1.24048,-1.650705 4.14159,-0.92554 11.05333,4.077571 a 6.0248613,6.0248613 0 0 1 0,8.520466 c -1.11325,1.27738 -8.10725,7.343493 -7.97285,8.643333 1.33848,5.73149 13.10367,3.26678 16.49331,-0.12284 a 6.0248613,6.0248613 0 0 1 6.02486,6.02486 l 12.04973,-7e-5 A 18.074583,18.074583 0 0 0 173.1328,94.430586 18.074583,18.074583 0 0 0 167.90159,80.145423 c -5.90204,-6.169459 -16.72732,-6.797213 -17.7,-9.621133 A 18.074583,18.074583 0 0 0 132.78617,57.286146 Z m 41.14029,54.445492 a 6.0248613,6.0248613 0 0 1 -6.02486,6.02486 c -11.25165,-0.20239 -32.864,-5.46909 -32.85394,1.20333 -0.0739,2.28554 4.11023,4.42599 9.54559,6.1917 -1.57877,2.96475 -4.01758,7.5015 -3.62068,8.37675 3.08698,5.01111 13.4629,-1.05715 15.60286,-5.34675 5.15655,1.02721 9.65951,1.62476 11.32617,1.62476 v -5e-5 a 18.074583,18.074583 0 0 0 0.0319,-7e-5 c 7.35281,0 5.91245,0 7.42919,0 3.32745,0 6.02483,2.69744 6.02483,6.02489 0,3.32743 -2.69738,6.02481 -6.02483,6.02479 -1.52247,2e-5 -0.0113,0 -7.45663,0 a 18.074583,18.074583 0 0 1 0.0594,0 18.074583,18.074583 0 0 0 -0.0637,0 v -7e-5 c -4.79367,2e-5 -20.0332,3.18095 -18.05162,6.41394 5.03672,5.48298 16.36121,5.51979 18.05162,5.63585 a 6.0248613,6.0248613 0 0 1 6.02486,6.02488 h 12.04975 a 18.074583,18.074583 0 0 0 -1.97798,-8.22127 c 5.81755,-3.16391 9.43905,-9.25595 9.43907,-15.87819 -2e-5,-6.62213 -3.62145,-12.71403 -9.43882,-15.87803 0,0.001 -0.001,0.001 -0.001,0.002 a 18.074583,18.074583 0 0 1 -0.001,0.001 18.074583,18.074583 0 0 0 0.002,-0.002 18.074583,18.074583 0 0 0 1.97791,-8.2213 z m 10.07183,8.2213 c 7e-5,2e-5 0,4e-5 0,9e-5 7e-5,-9e-5 0,0 0,0 z M 173.12861,94.480924 a 18.074583,18.074583 0 0 1 -0.005,0.06255 18.074583,18.074583 0 0 0 0.005,-0.06255 z M 44.361526,95.495398 a 18.074583,18.074583 0 0 0 0.0045,0.034 18.074583,18.074583 0 0 1 -0.0045,-0.034 z m 128.650514,0 a 18.074583,18.074583 0 0 1 -0.005,0.034 18.074583,18.074583 0 0 0 0.005,-0.034 z M 44.522692,96.439115 a 18.074583,18.074583 0 0 0 0.0136,0.06255 18.074583,18.074583 0 0 0 0.0091,0.04556 18.074583,18.074583 0 0 1 -0.0091,-0.04556 18.074583,18.074583 0 0 1 -0.0136,-0.06255 z m 128.328188,0 a 18.074583,18.074583 0 0 1 -0.0136,0.06255 18.074583,18.074583 0 0 1 -0.009,0.04556 18.074583,18.074583 0 0 0 0.009,-0.04556 18.074583,18.074583 0 0 0 0.0136,-0.06255 z M 44.937697,98.111238 a 18.074583,18.074583 0 0 0 0.01586,0.04986 18.074583,18.074583 0 0 1 -0.01586,-0.04986 z m 127.498153,0 a 18.074583,18.074583 0 0 1 -0.0159,0.04986 18.074583,18.074583 0 0 0 0.0159,-0.04986 z M 44.993632,98.294365 a 18.074583,18.074583 0 0 0 0.01813,0.06097 18.074583,18.074583 0 0 1 -0.01813,-0.06097 z m 127.386278,0 a 18.074583,18.074583 0 0 1 -0.0181,0.06097 18.074583,18.074583 0 0 0 0.0181,-0.06097 z M 45.051449,98.476812 a 18.074583,18.074583 0 0 0 0.0136,0.04193 18.074583,18.074583 0 0 1 -0.0136,-0.04193 z m 127.270651,0 a 18.074583,18.074583 0 0 1 -0.0136,0.04193 18.074583,18.074583 0 0 0 0.0136,-0.04193 z M 45.193939,98.900316 a 18.074583,18.074583 0 0 0 0.01586,0.04329 18.074583,18.074583 0 0 1 -0.01586,-0.04329 z m 126.496011,1.247854 a 18.074583,18.074583 0 0 1 -0.0181,0.044 18.074583,18.074583 0 0 0 0.0181,-0.044 z m -125.928997,0.17496 a 18.074583,18.074583 0 0 0 0.02629,0.0582 18.074583,18.074583 0 0 1 -0.02629,-0.0582 z m 125.851637,0 a 18.074583,18.074583 0 0 1 -0.0263,0.0582 18.074583,18.074583 0 0 0 0.0263,-0.0582 z m -125.318551,1.08913 a 18.074583,18.074583 0 0 0 0.03014,0.0562 18.074583,18.074583 0 0 1 -0.03014,-0.0562 z m 124.785471,0 a 18.074583,18.074583 0 0 1 -0.0301,0.0562 18.074583,18.074583 0 0 0 0.0301,-0.0562 z m -124.044282,1.26687 a 18.074583,18.074583 0 0 0 0.03445,0.0537 18.074583,18.074583 0 0 1 -0.03445,-0.0537 z m 123.303092,0 a 18.074583,18.074583 0 0 1 -0.0345,0.0537 18.074583,18.074583 0 0 0 0.0345,-0.0537 z m -123.128487,0.26719 a 18.074583,18.074583 0 0 0 0.02289,0.0342 18.074583,18.074583 0 0 1 -0.02289,-0.0342 z m 122.953907,0 a 18.074583,18.074583 0 0 1 -0.0229,0.0342 18.074583,18.074583 0 0 0 0.0229,-0.0342 z m -121.971752,1.33707 a 18.074583,18.074583 0 0 0 0.034,0.0419 18.074583,18.074583 0 0 1 -0.034,-0.0419 z m 120.989572,0 a 18.074583,18.074583 0 0 1 -0.034,0.0419 18.074583,18.074583 0 0 0 0.034,-0.0419 z m -120.495763,0.58553 a 18.074583,18.074583 0 0 0 0.0349,0.0394 18.074583,18.074583 0 0 1 -0.0349,-0.0394 z m 120.001993,0 a 18.074583,18.074583 0 0 1 -0.0349,0.0394 18.074583,18.074583 0 0 0 0.0349,-0.0394 z M 71.154795,125.6575 c -0.150037,0.0449 -0.300868,0.0895 -0.45231,0.13395 0.151397,-0.0444 0.302182,-0.0891 0.45231,-0.13395 z m 75.063955,0 c 0.15004,0.0449 0.30091,0.0895 0.45233,0.13395 -0.15139,-0.0444 -0.30218,-0.0891 -0.45233,-0.13395 z m -75.774547,0.20897 c -0.138932,0.0401 -0.278363,0.0802 -0.418269,0.11989 0.139838,-0.0397 0.279292,-0.0798 0.418269,-0.11989 z m 76.485167,0 c 0.13893,0.0401 0.27834,0.0802 0.41824,0.11989 -0.13984,-0.0397 -0.27929,-0.0798 -0.41824,-0.11989 z m -77.173367,0.19604 c -0.136892,0.0383 -0.274034,0.0766 -0.411606,0.11446 0.137572,-0.0378 0.274782,-0.0761 0.411606,-0.11446 z m 77.861537,0 c 0.1369,0.0383 0.27404,0.0766 0.41161,0.11446 -0.13757,-0.0378 -0.2748,-0.0761 -0.41161,-0.11446 z m -79.964621,0.5648 c -0.03626,0.009 -0.07253,0.0181 -0.108788,0.0277 0.03626,-0.009 0.07253,-0.0181 0.108788,-0.0277 z m 82.067711,0 c 0.0363,0.009 0.0725,0.0181 0.10879,0.0277 -0.0363,-0.009 -0.0725,-0.0181 -0.10879,-0.0277 z m -82.822204,0.19106 c -0.03853,0.009 -0.07706,0.0181 -0.115588,0.0286 0.03853,-0.009 0.07706,-0.0181 0.115588,-0.0286 z m 83.576694,0 c 0.0385,0.009 0.0771,0.0181 0.11559,0.0286 -0.0385,-0.009 -0.0771,-0.0181 -0.11559,-0.0286 z m -84.330756,0.18562 c -0.0442,0.0113 -0.08862,0.0204 -0.132813,0.032 0.0442,-0.0113 0.08862,-0.0204 0.132813,-0.032 z m 85.084816,0 c 0.0442,0.0113 0.0886,0.0204 0.13282,0.032 -0.0442,-0.0113 -0.0886,-0.0204 -0.13282,-0.032 z m -85.83455,0.17927 c -0.05054,0.0113 -0.100855,0.0238 -0.151397,0.0356 0.05054,-0.0113 0.100856,-0.0236 0.151397,-0.0356 z m 86.58429,0 c 0.0505,0.0113 0.10085,0.0238 0.15139,0.0356 -0.0505,-0.0113 -0.10085,-0.0236 -0.15139,-0.0356 z m -87.345944,0.17724 c -0.0476,0.0113 -0.09496,0.0227 -0.142558,0.0326 0.04759,-0.0113 0.09496,-0.0227 0.142558,-0.0326 z m 88.107614,0 c 0.0476,0.0113 0.095,0.0227 0.14256,0.0326 -0.0476,-0.0113 -0.095,-0.0227 -0.14256,-0.0326 z m -88.863082,0.17088 c -0.04669,0.0113 -0.09315,0.0204 -0.139838,0.0311 0.04669,-0.0113 0.09315,-0.0204 0.139838,-0.0311 z m 89.618532,0 c 0.0467,0.0113 0.0934,0.0204 0.13984,0.0311 -0.0467,-0.0113 -0.0934,-0.0204 -0.13984,-0.0311 z m -90.384855,0.16863 c -0.03876,0.009 -0.07728,0.0159 -0.116041,0.0252 0.03876,-0.009 0.07728,-0.0159 0.116041,-0.0252 z m 91.151175,0 c 0.0388,0.009 0.0775,0.0159 0.11604,0.0252 -0.0387,-0.009 -0.0773,-0.0159 -0.11604,-0.0252 z m -91.91036,0.1625 c -0.03354,0.007 -0.06709,0.0136 -0.100629,0.0204 0.03354,-0.007 0.06709,-0.0136 0.100629,-0.0204 z m 92.66957,0 c 0.0335,0.007 0.0671,0.0136 0.10063,0.0204 -0.0335,-0.007 -0.0671,-0.0136 -0.10063,-0.0204 z m -93.429615,0.1582 c -0.02493,0.004 -0.04986,0.0113 -0.07479,0.0159 0.02493,-0.004 0.04986,-0.0113 0.07479,-0.0159 z m 94.189635,0 c 0.0249,0.004 0.0499,0.0113 0.0748,0.0159 -0.0249,-0.004 -0.0499,-0.0113 -0.0748,-0.0159 z M 49.339729,141.85619 a 18.074583,18.074583 0 0 1 0.0045,0 18.074583,18.074583 0 0 0 -0.04488,0 18.074583,18.074583 0 0 1 0.04034,0 z m 118.689601,0 a 18.074583,18.074583 0 0 1 0.0449,0 18.074583,18.074583 0 0 0 -0.0449,0 z m -118.75909,0.001 a 18.074583,18.074583 0 0 0 -0.117627,0.001 18.074583,18.074583 0 0 1 0.117627,-0.001 z m 118.83309,0 a 18.074583,18.074583 0 0 1 0.11763,0.001 18.074583,18.074583 0 0 0 -0.11763,-0.001 z m -119.014426,0.002 a 18.074583,18.074583 0 0 0 -0.255245,0.007 18.074583,18.074583 0 0 0 -0.191287,0.007 18.074583,18.074583 0 0 1 0.191287,-0.007 18.074583,18.074583 0 0 1 0.255245,-0.007 z m 119.195736,0 a 18.074583,18.074583 0 0 1 0.25525,0.007 18.074583,18.074583 0 0 1 0.19128,0.007 18.074583,18.074583 0 0 0 -0.19128,-0.007 18.074583,18.074583 0 0 0 -0.25525,-0.007 z m -119.706113,0.0181 a 18.074583,18.074583 0 0 0 -0.127373,0.007 18.074583,18.074583 0 0 1 0.127373,-0.007 z m 120.216493,0 a 18.074583,18.074583 0 0 1 0.12737,0.007 18.074583,18.074583 0 0 0 -0.12737,-0.007 z m -120.471398,0.0136 a 18.074583,18.074583 0 0 0 -0.191059,0.0136 18.074583,18.074583 0 0 1 0.191059,-0.0136 z m 120.726328,0 a 18.074583,18.074583 0 0 1 0.19106,0.0136 18.074583,18.074583 0 0 0 -0.19106,-0.0136 z m -120.981006,0.0181 a 18.074583,18.074583 0 0 0 -0.12556,0.0113 18.074583,18.074583 0 0 1 0.12556,-0.0113 z m 121.235656,0 a 18.074583,18.074583 0 0 1 0.12579,0.0113 18.074583,18.074583 0 0 0 -0.12579,-0.0113 z m -121.367358,0.0113 a 18.074583,18.074583 0 0 0 -0.122613,0.0113 18.074583,18.074583 0 0 0 -0.124654,0.0113 18.074583,18.074583 0 0 1 0.124654,-0.0113 18.074583,18.074583 0 0 1 0.122613,-0.0113 z m 121.499058,0 a 18.074583,18.074583 0 0 1 0.12284,0.0113 18.074583,18.074583 0 0 1 0.12466,0.0113 18.074583,18.074583 0 0 0 -0.12466,-0.0113 18.074583,18.074583 0 0 0 -0.12284,-0.0113 z m -121.875828,0.036 a 18.074583,18.074583 0 0 0 -0.19038,0.0204 18.074583,18.074583 0 0 1 0.19038,-0.0204 z m 122.252648,0 a 18.074583,18.074583 0 0 1 0.19038,0.0204 18.074583,18.074583 0 0 0 -0.19038,-0.0204 z m -122.506397,0.0288 a 18.074583,18.074583 0 0 0 -0.253273,0.0324 18.074583,18.074583 0 0 0 -0.252797,0.036 18.074583,18.074583 0 0 0 -0.189247,0.0292 18.074583,18.074583 0 0 1 0.189247,-0.0292 18.074583,18.074583 0 0 1 0.252797,-0.036 18.074583,18.074583 0 0 1 0.253273,-0.0324 z m 122.760147,0 a 18.074583,18.074583 0 0 1 0.25323,0.0324 18.074583,18.074583 0 0 1 0.25282,0.036 18.074583,18.074583 0 0 1 0.18924,0.0292 18.074583,18.074583 0 0 0 -0.18924,-0.0292 18.074583,18.074583 0 0 0 -0.25282,-0.036 18.074583,18.074583 0 0 0 -0.25323,-0.0324 z m -123.518448,0.1079 a 18.074583,18.074583 0 0 0 -0.188793,0.032 18.074583,18.074583 0 0 1 0.188793,-0.032 z m 124.276748,0 a 18.074583,18.074583 0 0 1 0.18879,0.032 18.074583,18.074583 0 0 0 -0.18879,-0.032 z m -124.528389,0.0431 a 18.074583,18.074583 0 0 0 -0.121254,0.0227 18.074583,18.074583 0 0 1 0.121254,-0.0227 z m 124.779989,0 a 18.074583,18.074583 0 0 1 0.12125,0.0227 18.074583,18.074583 0 0 0 -0.12125,-0.0227 z m -125.031063,0.0467 a 18.074583,18.074583 0 0 0 -0.120121,0.0236 18.074583,18.074583 0 0 1 0.120121,-0.0236 z m 125.282133,0 a 18.074583,18.074583 0 0 1 0.12012,0.0236 18.074583,18.074583 0 0 0 -0.12012,-0.0236 z m -125.41175,0.0254 a 18.074583,18.074583 0 0 0 -0.120801,0.0247 18.074583,18.074583 0 0 0 -0.121707,0.0256 18.074583,18.074583 0 0 1 0.121707,-0.0256 18.074583,18.074583 0 0 1 0.120801,-0.0247 z m 125.54141,0 a 18.074583,18.074583 0 0 1 0.1208,0.0247 18.074583,18.074583 0 0 0 -0.1208,-0.0247 z m 0.12511,0.0256 a 18.074583,18.074583 0 0 1 0.1174,0.0249 18.074583,18.074583 0 0 0 -0.1174,-0.0249 z m -125.916416,0.0265 a 18.074583,18.074583 0 0 0 -0.120347,0.0263 18.074583,18.074583 0 0 0 -0.124427,0.0281 18.074583,18.074583 0 0 1 0.124427,-0.0281 18.074583,18.074583 0 0 1 0.120347,-0.0263 z m 126.041316,0 a 18.074583,18.074583 0 0 1 0.12035,0.0263 18.074583,18.074583 0 0 1 0.0623,0.0136 18.074583,18.074583 0 0 1 0.0623,0.0136 18.074583,18.074583 0 0 0 -0.0623,-0.0136 18.074583,18.074583 0 0 0 -0.0623,-0.0136 18.074583,18.074583 0 0 0 -0.12035,-0.0263 z m -126.2906,0.0555 a 18.074583,18.074583 0 0 0 -0.119894,0.0281 18.074583,18.074583 0 0 0 -0.115815,0.0279 18.074583,18.074583 0 0 1 0.115815,-0.0279 18.074583,18.074583 0 0 1 0.119894,-0.0281 z m 126.53986,0 a 18.074583,18.074583 0 0 1 0.1199,0.0281 18.074583,18.074583 0 0 1 0.11581,0.0279 18.074583,18.074583 0 0 0 -0.11581,-0.0279 18.074583,18.074583 0 0 0 -0.1199,-0.0281 z m -126.969688,0.10448 a 18.074583,18.074583 0 0 0 -0.12352,0.032 18.074583,18.074583 0 0 1 0.12352,-0.032 z m 127.399518,0 a 18.074583,18.074583 0 0 1 0.12352,0.032 18.074583,18.074583 0 0 0 -0.12352,-0.032 z m -127.6464,0.065 a 18.074583,18.074583 0 0 0 -0.04488,0.0113 18.074583,18.074583 0 0 1 0.04488,-0.0113 z m 127.89333,0 a 18.074583,18.074583 0 0 1 0.0446,0.0113 18.074583,18.074583 0 0 0 -0.0446,-0.0113 z m -127.965062,0.0204 a 18.074583,18.074583 0 0 0 -0.112868,0.0315 18.074583,18.074583 0 0 1 0.112868,-0.0315 z m 128.039552,0.001 a 18.074583,18.074583 0 0 1 0.10993,0.0308 18.074583,18.074583 0 0 0 -0.10993,-0.0308 z m -128.397556,0.10203 a 18.074583,18.074583 0 0 0 -0.04442,0.0136 18.074583,18.074583 0 0 1 0.04442,-0.0136 z m 128.752756,0 a 18.074583,18.074583 0 0 1 0.0446,0.0136 18.074583,18.074583 0 0 0 -0.0446,-0.0136 z m -128.88192,0.039 a 18.074583,18.074583 0 0 0 -0.175875,0.0549 18.074583,18.074583 0 0 0 -0.242847,0.0789 18.074583,18.074583 0 0 0 -0.121027,0.0408 18.074583,18.074583 0 0 1 0.121027,-0.0408 18.074583,18.074583 0 0 1 0.242847,-0.0789 18.074583,18.074583 0 0 1 0.175875,-0.0549 z m 129.01113,0 a 18.074583,18.074583 0 0 1 0.17587,0.0549 18.074583,18.074583 0 0 1 0.24287,0.0789 18.074583,18.074583 0 0 1 0.12103,0.0408 18.074583,18.074583 0 0 0 -0.12103,-0.0408 18.074583,18.074583 0 0 0 -0.24287,-0.0789 18.074583,18.074583 0 0 0 -0.17587,-0.0549 z M 43.637358,142.8244 a 18.074583,18.074583 0 0 0 -0.116494,0.0401 18.074583,18.074583 0 0 0 -0.06029,0.0204 18.074583,18.074583 0 0 0 -0.04737,0.0159 18.074583,18.074583 0 0 1 0.04737,-0.0159 18.074583,18.074583 0 0 1 0.06029,-0.0204 18.074583,18.074583 0 0 1 0.116494,-0.0401 z m 130.098962,0 a 18.074583,18.074583 0 0 1 0.1165,0.0401 18.074583,18.074583 0 0 1 0.0603,0.0204 18.074583,18.074583 0 0 1 0.0476,0.0159 18.074583,18.074583 0 0 0 -0.0476,-0.0159 18.074583,18.074583 0 0 0 -0.0603,-0.0204 18.074583,18.074583 0 0 0 -0.1165,-0.0401 z m -130.400102,0.10562 a 18.074583,18.074583 0 0 0 -0.115814,0.0424 18.074583,18.074583 0 0 0 -0.357937,0.13621 18.074583,18.074583 0 0 1 0.357937,-0.13621 18.074583,18.074583 0 0 1 0.115814,-0.0424 z m 130.701272,0 a 18.074583,18.074583 0 0 1 0.11581,0.0424 18.074583,18.074583 0 0 1 0.35789,0.13621 18.074583,18.074583 0 0 0 -0.35789,-0.13621 18.074583,18.074583 0 0 0 -0.11581,-0.0424 z m -131.297727,0.22721 a 18.074583,18.074583 0 0 0 -0.110601,0.0449 18.074583,18.074583 0 0 1 0.110601,-0.0449 z m 131.894177,0 a 18.074583,18.074583 0 0 1 0.1106,0.0449 18.074583,18.074583 0 0 0 -0.1106,-0.0449 z m -132.253111,0.14868 a 18.074583,18.074583 0 0 0 -0.108108,0.0465 18.074583,18.074583 0 0 0 -0.05847,0.0256 18.074583,18.074583 0 0 1 0.05847,-0.0256 18.074583,18.074583 0 0 1 0.108108,-0.0465 z m 132.612021,0 a 18.074583,18.074583 0 0 1 0.10811,0.0465 18.074583,18.074583 0 0 1 0.0585,0.0256 18.074583,18.074583 0 0 0 -0.0585,-0.0256 18.074583,18.074583 0 0 0 -0.10811,-0.0465 z m -132.837122,0.0979 a 18.074583,18.074583 0 0 0 -0.05417,0.024 18.074583,18.074583 0 0 1 0.05417,-0.024 z m 133.062252,0 a 18.074583,18.074583 0 0 1 0.0542,0.024 18.074583,18.074583 0 0 0 -0.0542,-0.024 z m -133.236903,0.0784 a 18.074583,18.074583 0 0 0 -0.05802,0.0265 18.074583,18.074583 0 0 1 0.05802,-0.0265 z m 133.411553,0 a 18.074583,18.074583 0 0 1 0.058,0.0265 18.074583,18.074583 0 0 0 -0.058,-0.0265 z M 41.919,143.51056 a 18.074583,18.074583 0 0 0 -0.169529,0.0791 18.074583,18.074583 0 0 0 -0.102895,0.0489 18.074583,18.074583 0 0 1 0.102895,-0.0489 18.074583,18.074583 0 0 1 0.169529,-0.0791 z m 133.53573,0 a 18.074583,18.074583 0 0 1 0.16953,0.0791 18.074583,18.074583 0 0 1 0.10289,0.0489 18.074583,18.074583 0 0 0 -0.10289,-0.0489 18.074583,18.074583 0 0 0 -0.16953,-0.0791 z m -133.824858,0.13599 a 18.074583,18.074583 0 0 0 -0.110601,0.0537 18.074583,18.074583 0 0 1 0.110601,-0.0537 z m 134.113938,0 a 18.074583,18.074583 0 0 1 0.1106,0.0537 18.074583,18.074583 0 0 0 -0.1106,-0.0537 z m -134.281744,0.082 a 18.074583,18.074583 0 0 0 -0.171115,0.0857 18.074583,18.074583 0 0 1 0.171115,-0.0857 z m 134.449574,0 a 18.074583,18.074583 0 0 1 0.17111,0.0857 18.074583,18.074583 0 0 0 -0.17111,-0.0857 z m -134.681611,0.11673 a 18.074583,18.074583 0 0 0 -0.166129,0.0861 18.074583,18.074583 0 0 1 0.166129,-0.0861 z m 134.913621,0 a 18.074583,18.074583 0 0 1 0.16613,0.0861 18.074583,18.074583 0 0 0 -0.16613,-0.0861 z m -135.192436,0.14595 a 18.074583,18.074583 0 0 0 -0.09972,0.0537 18.074583,18.074583 0 0 1 0.09972,-0.0537 z m 135.471276,0 a 18.074583,18.074583 0 0 1 0.11242,0.0605 18.074583,18.074583 0 0 0 -0.11242,-0.0605 z M 40.667208,144.1463 a 18.074583,18.074583 0 0 0 -0.107428,0.0605 18.074583,18.074583 0 0 1 0.107428,-0.0605 z m 136.039262,0 a 18.074583,18.074583 0 0 1 0.10743,0.0605 18.074583,18.074583 0 0 0 -0.10743,-0.0605 z m -136.329319,0.16545 a 18.074583,18.074583 0 0 0 -0.09088,0.0533 18.074583,18.074583 0 0 1 0.09088,-0.0533 z m 136.619399,0 a 18.074583,18.074583 0 0 1 0.0909,0.0533 18.074583,18.074583 0 0 0 -0.0909,-0.0533 z m -136.877432,0.15321 a 18.074583,18.074583 0 0 0 -0.109015,0.0664 18.074583,18.074583 0 0 1 0.109015,-0.0664 z m 137.135472,0 a 18.074583,18.074583 0 0 1 0.10901,0.0664 18.074583,18.074583 0 0 0 -0.10901,-0.0664 z m -137.29879,0.1 a 18.074583,18.074583 0 0 0 -0.05417,0.0335 18.074583,18.074583 0 0 1 0.05417,-0.0335 z m 137.46213,0 a 18.074583,18.074583 0 0 1 0.0335,0.0204 18.074583,18.074583 0 0 0 -0.0335,-0.0204 z m -137.520128,0.036 a 18.074583,18.074583 0 0 0 -0.103122,0.065 18.074583,18.074583 0 0 1 0.103122,-0.065 z m 137.588978,0.007 a 18.074583,18.074583 0 0 1 0.0925,0.0582 18.074583,18.074583 0 0 0 -0.0925,-0.0582 z m -138.014545,0.26729 a 18.074583,18.074583 0 0 0 -0.106068,0.0709 18.074583,18.074583 0 0 0 -0.05054,0.0342 18.074583,18.074583 0 0 1 0.05054,-0.0342 18.074583,18.074583 0 0 1 0.106068,-0.0709 z m 138.429215,0 a 18.074583,18.074583 0 0 1 0.10607,0.0709 18.074583,18.074583 0 0 1 0.0508,0.0342 18.074583,18.074583 0 0 0 -0.0508,-0.0342 18.074583,18.074583 0 0 0 -0.10607,-0.0709 z m -138.764056,0.22792 a 18.074583,18.074583 0 0 0 -0.08136,0.0571 18.074583,18.074583 0 0 1 0.08136,-0.0571 z m 139.098916,0 a 18.074583,18.074583 0 0 1 0.0814,0.0571 18.074583,18.074583 0 0 0 -0.0814,-0.0571 z m -139.237485,0.0975 a 18.074583,18.074583 0 0 0 -0.03536,0.0252 18.074583,18.074583 0 0 1 0.03536,-0.0252 z m 139.376055,0 a 18.074583,18.074583 0 0 1 0.0351,0.0252 18.074583,18.074583 0 0 0 -0.0351,-0.0252 z m -139.479835,0.0743 a 18.074583,18.074583 0 0 0 -0.05168,0.0374 18.074583,18.074583 0 0 1 0.05168,-0.0374 z m 139.583595,0 a 18.074583,18.074583 0 0 1 0.0517,0.0374 18.074583,18.074583 0 0 0 -0.0517,-0.0374 z m -139.738301,0.11286 a 18.074583,18.074583 0 0 0 -0.05122,0.0381 18.074583,18.074583 0 0 1 0.05122,-0.0381 z m 139.893001,0 a 18.074583,18.074583 0 0 1 0.10245,0.0762 18.074583,18.074583 0 0 0 -0.10245,-0.0762 z m -140.046461,0.11445 a 18.074583,18.074583 0 0 0 -0.03445,0.0261 18.074583,18.074583 0 0 1 0.03445,-0.0261 z m 140.199951,0 a 18.074583,18.074583 0 0 1 0.0344,0.0261 18.074583,18.074583 0 0 0 -0.0344,-0.0261 z m -140.456578,0.19718 a 18.074583,18.074583 0 0 0 -0.09678,0.0764 18.074583,18.074583 0 0 1 0.09678,-0.0764 z m 140.713178,0 a 18.074583,18.074583 0 0 1 0.0968,0.0764 18.074583,18.074583 0 0 0 -0.0968,-0.0764 z m -140.909632,0.15593 a 18.074583,18.074583 0 0 0 -0.04964,0.0401 18.074583,18.074583 0 0 1 0.04964,-0.0401 z m 141.106082,0 a 18.074583,18.074583 0 0 1 0.0496,0.0401 18.074583,18.074583 0 0 0 -0.0496,-0.0401 z m -141.356273,0.20534 a 18.074583,18.074583 0 0 0 -0.09428,0.0793 18.074583,18.074583 0 0 1 0.09428,-0.0793 z m 141.606493,0 a 18.074583,18.074583 0 0 1 0.0943,0.0793 18.074583,18.074583 0 0 0 -0.0943,-0.0793 z m -141.749391,0.12057 a 18.074583,18.074583 0 0 0 -0.0485,0.0415 18.074583,18.074583 0 0 1 0.0485,-0.0415 z m 141.892291,0 a 18.074583,18.074583 0 0 1 0.0485,0.0415 18.074583,18.074583 0 0 0 -0.0485,-0.0415 z m 0.29207,0.25455 a 18.074583,18.074583 0 0 1 0.0861,0.0773 18.074583,18.074583 0 0 0 -0.0861,-0.0773 z m -142.571443,0.0852 a 18.074583,18.074583 0 0 0 -0.09111,0.083 18.074583,18.074583 0 0 1 0.09111,-0.083 z m 142.666433,0 a 18.074583,18.074583 0 0 1 0.0911,0.083 18.074583,18.074583 0 0 0 -0.0911,-0.083 z m -143.220529,0.52239 a 18.074583,18.074583 0 0 0 -0.03286,0.0324 18.074583,18.074583 0 0 1 0.03286,-0.0324 z m 143.774669,0 a 18.074583,18.074583 0 0 1 0.0329,0.0324 18.074583,18.074583 0 0 0 -0.0329,-0.0324 z m -144.048068,0.27453 a 18.074583,18.074583 0 0 0 -0.08272,0.0854 18.074583,18.074583 0 0 1 0.08272,-0.0854 z m 144.321418,0 a 18.074583,18.074583 0 0 1 0.0827,0.0854 18.074583,18.074583 0 0 0 -0.0827,-0.0854 z m -144.53904,0.22735 a 18.074583,18.074583 0 0 0 -0.07978,0.0852 18.074583,18.074583 0 0 1 0.07978,-0.0852 z m 144.75666,0 a 18.074583,18.074583 0 0 1 0.0798,0.0852 18.074583,18.074583 0 0 0 -0.0798,-0.0852 z m -145.016143,0.28169 a 18.074583,18.074583 0 0 0 -0.04261,0.0474 18.074583,18.074583 0 0 1 0.04261,-0.0474 z m 145.275633,0 a 18.074583,18.074583 0 0 1 0.0426,0.0474 18.074583,18.074583 0 0 0 -0.0426,-0.0474 z m -145.531988,0.29042 a 18.074583,18.074583 0 0 0 -0.07774,0.0909 18.074583,18.074583 0 0 1 0.07774,-0.0909 z m 145.788338,0 a 18.074583,18.074583 0 0 1 0.0777,0.0909 18.074583,18.074583 0 0 0 -0.0777,-0.0909 z m -145.991931,0.24008 a 18.074583,18.074583 0 0 0 -0.0408,0.0489 18.074583,18.074583 0 0 1 0.0408,-0.0489 z m 146.195571,0 a 18.074583,18.074583 0 0 1 0.0408,0.0489 18.074583,18.074583 0 0 0 -0.0408,-0.0489 z m -146.634646,0.54787 a 18.074583,18.074583 0 0 0 -0.02516,0.0326 18.074583,18.074583 0 0 1 0.02516,-0.0326 z m 147.073676,0 a 18.074583,18.074583 0 0 1 0.0252,0.0326 18.074583,18.074583 0 0 0 -0.0252,-0.0326 z m -147.189671,0.1523 a 18.074583,18.074583 0 0 0 -0.06799,0.0909 18.074583,18.074583 0 0 1 0.06799,-0.0909 z m 147.305691,0 a 18.074583,18.074583 0 0 1 0.068,0.0909 18.074583,18.074583 0 0 0 -0.068,-0.0909 z m -147.420078,0.15344 a 18.074583,18.074583 0 0 0 -0.02697,0.0365 18.074583,18.074583 0 0 1 0.02697,-0.0365 z m 147.534458,0 a 18.074583,18.074583 0 0 1 0.027,0.0365 18.074583,18.074583 0 0 0 -0.027,-0.0365 z m -147.647213,0.1548 a 18.074583,18.074583 0 0 0 -0.02493,0.0347 18.074583,18.074583 0 0 1 0.02493,-0.0347 z m 147.759993,0 a 18.074583,18.074583 0 0 1 0.0249,0.0347 18.074583,18.074583 0 0 0 -0.0249,-0.0347 z m -147.944276,0.26059 a 18.074583,18.074583 0 0 0 -0.0723,0.10516 18.074583,18.074583 0 0 1 0.0723,-0.10516 z m 148.128516,0 a 18.074583,18.074583 0 0 1 0.0725,0.10516 18.074583,18.074583 0 0 0 -0.0725,-0.10516 z m -148.343531,0.31696 a 18.074583,18.074583 0 0 0 -0.03513,0.0533 18.074583,18.074583 0 0 1 0.03513,-0.0533 z m 148.558541,0 a 18.074583,18.074583 0 0 1 0.0351,0.0533 18.074583,18.074583 0 0 0 -0.0351,-0.0533 z m -148.868339,0.48374 a 18.074583,18.074583 0 0 0 -0.03354,0.0544 18.074583,18.074583 0 0 1 0.03354,-0.0544 z m -0.450905,0.77147 a 18.074583,18.074583 0 0 0 -0.0204,0.036 18.074583,18.074583 0 0 1 0.0204,-0.036 z m 150.079994,0 a 18.074583,18.074583 0 0 1 0.0204,0.036 18.074583,18.074583 0 0 0 -0.0204,-0.036 z M 48.712382,166.76363 a 18.074583,18.074583 0 0 0 -0.02652,0.0299 18.074583,18.074583 0 0 1 0.02652,-0.0299 z m 119.948938,0 a 18.074583,18.074583 0 0 1 0.0265,0.0299 18.074583,18.074583 0 0 0 -0.0265,-0.0299 z m -120.112846,0.18789 a 18.074583,18.074583 0 0 0 -0.02969,0.0347 18.074583,18.074583 0 0 1 0.02969,-0.0347 z m 120.276736,0 a 18.074583,18.074583 0 0 1 0.0297,0.0347 18.074583,18.074583 0 0 0 -0.0297,-0.0347 z m -121.592418,1.73043 a 18.074583,18.074583 0 0 0 -0.02289,0.0345 18.074583,18.074583 0 0 1 0.02289,-0.0345 z m 122.908098,0 a 18.074583,18.074583 0 0 1 0.0229,0.0345 18.074583,18.074583 0 0 0 -0.0229,-0.0345 z m -123.071031,0.24786 a 18.074583,18.074583 0 0 0 -0.03445,0.0537 18.074583,18.074583 0 0 1 0.03445,-0.0537 z m 123.233991,0 a 18.074583,18.074583 0 0 1 0.0344,0.0537 18.074583,18.074583 0 0 0 -0.0344,-0.0537 z m -123.979668,1.26423 a 18.074583,18.074583 0 0 0 -0.03014,0.0562 18.074583,18.074583 0 0 1 0.03014,-0.0562 z m 124.725318,0 a 18.074583,18.074583 0 0 1 0.0301,0.0562 18.074583,18.074583 0 0 0 -0.0301,-0.0562 z M 45.209282,172.7188 a 18.074583,18.074583 0 0 0 -0.01586,0.0435 18.074583,18.074583 0 0 1 0.01586,-0.0435 z m -0.08386,0.24259 a 18.074583,18.074583 0 0 0 -0.0136,0.0424 18.074583,18.074583 0 0 1 0.0136,-0.0424 z m -0.0621,0.18766 a 18.074583,18.074583 0 0 0 -0.01133,0.0367 18.074583,18.074583 0 0 1 0.01133,-0.0367 z m 127.246828,0 a 18.074583,18.074583 0 0 1 0.0113,0.0367 18.074583,18.074583 0 0 0 -0.0113,-0.0367 z m -127.298095,0.16001 a 18.074583,18.074583 0 0 0 -0.01813,0.0592 18.074583,18.074583 0 0 1 0.01813,-0.0592 z m 127.349345,0 a 18.074583,18.074583 0 0 1 0.0181,0.0592 18.074583,18.074583 0 0 0 -0.0181,-0.0592 z m -127.40868,0.19242 a 18.074583,18.074583 0 0 0 -0.01586,0.0499 18.074583,18.074583 0 0 1 0.01586,-0.0499 z m 127.46804,0 a 18.074583,18.074583 0 0 1 0.0159,0.0499 18.074583,18.074583 0 0 0 -0.0159,-0.0499 z m 0.26533,0.97402 a 18.074583,18.074583 0 0 1 0.0159,0.0621 18.074583,18.074583 0 0 0 -0.0159,-0.0621 z m -128.141666,0.63984 a 18.074583,18.074583 0 0 0 -0.0091,0.0456 18.074583,18.074583 0 0 0 -0.0136,0.0626 18.074583,18.074583 0 0 1 0.0136,-0.0626 18.074583,18.074583 0 0 1 0.0091,-0.0456 z m 128.284606,0 a 18.074583,18.074583 0 0 1 0.009,0.0456 18.074583,18.074583 0 0 1 0.0136,0.0626 18.074583,18.074583 0 0 0 -0.0136,-0.0626 18.074583,18.074583 0 0 0 -0.009,-0.0456 z m -128.462634,1.01798 a 18.074583,18.074583 0 0 0 -0.0045,0.034 18.074583,18.074583 0 0 1 0.0045,-0.034 z m 128.640664,0 a 18.074583,18.074583 0 0 1 0.005,0.034 18.074583,18.074583 0 0 0 -0.005,-0.034 z m -128.707229,0.50789 a 18.074583,18.074583 0 0 0 -0.0045,0.0324 18.074583,18.074583 0 0 1 0.0045,-0.0324 z m 128.773789,0 a 18.074583,18.074583 0 0 1 0.005,0.0324 18.074583,18.074583 0 0 0 -0.005,-0.0324 z m 0.0496,0.47935 a 18.074583,18.074583 0 0 1 0.005,0.0612 18.074583,18.074583 0 0 0 -0.005,-0.0612 z m -106.610378,5.87666 a 18.074582,18.074582 0 0 0 1.13e-4,0.0625 18.074583,18.074583 0 0 1 -1.13e-4,-0.0625 z m 84.347958,0 a 18.074583,18.074583 0 0 1 0,0.0625 18.074583,18.074583 0 0 0 0,-0.0625 z m -84.347845,0.0664 a 18.074582,18.074582 0 0 0 0,0.061 18.074582,18.074582 0 0 0 0,0.0639 18.074583,18.074583 0 0 1 0,-0.0639 18.074583,18.074583 0 0 1 0,-0.061 z m 84.347715,0 a 18.074583,18.074583 0 0 1 0,0.061 18.074583,18.074583 0 0 1 0,0.0639 18.074583,18.074583 0 0 0 0,-0.0639 18.074583,18.074583 0 0 0 0,-0.061 z m -0.002,0.19287 a 18.074583,18.074583 0 0 1 -0.002,0.11015 18.074583,18.074583 0 0 0 0.002,-0.11015 z m -84.341617,0.14234 a 18.074582,18.074582 0 0 0 0.0012,0.0449 18.074583,18.074583 0 0 1 -0.0012,-0.0449 z m 84.339007,0 a 18.074583,18.074583 0 0 1 -0.001,0.0449 18.074583,18.074583 0 0 0 0.001,-0.0449 z m -84.334315,0.17247 a 18.074582,18.074582 0 0 0 0.0022,0.0639 18.074583,18.074583 0 0 1 -0.0022,-0.0639 z m 84.329645,5e-5 a 18.074583,18.074583 0 0 1 -0.002,0.0637 18.074583,18.074583 0 0 0 0.002,-0.0637 z m -84.322008,0.20375 a 18.074582,18.074582 0 0 0 0.0022,0.0505 18.074583,18.074583 0 0 1 -0.0022,-0.0505 z m 84.314328,0 a 18.074583,18.074583 0 0 1 -0.002,0.0505 18.074583,18.074583 0 0 0 0.002,-0.0505 z m -84.31197,0.0533 a 18.074582,18.074582 0 0 0 0.0023,0.0619 18.074582,18.074582 0 0 0 0.0023,0.0637 18.074582,18.074582 0 0 0 0.0068,0.11423 18.074583,18.074583 0 0 1 -0.0068,-0.11423 18.074583,18.074583 0 0 1 -0.0023,-0.0637 18.074583,18.074583 0 0 1 -0.0023,-0.0619 z m 84.30961,0 a 18.074583,18.074583 0 0 1 -0.002,0.0619 18.074583,18.074583 0 0 1 -0.002,0.0637 18.074583,18.074583 0 0 1 -0.007,0.11423 18.074583,18.074583 0 0 0 0.007,-0.11423 18.074583,18.074583 0 0 0 0.002,-0.0637 18.074583,18.074583 0 0 0 0.002,-0.0619 z m -84.292227,0.31671 a 18.074582,18.074582 0 0 0 0.0045,0.0637 18.074583,18.074583 0 0 1 -0.0045,-0.0637 z m 84.274847,0 a 18.074583,18.074583 0 0 1 -0.005,0.0637 18.074583,18.074583 0 0 0 0.005,-0.0637 z m -84.261067,0.19876 a 18.074582,18.074582 0 0 0 0.0045,0.0558 18.074583,18.074583 0 0 1 -0.0045,-0.0558 z m 84.247337,0 a 18.074583,18.074583 0 0 1 -0.005,0.0558 18.074583,18.074583 0 0 0 0.005,-0.0558 z m -84.226803,0.25133 a 18.074582,18.074582 0 0 0 0.0045,0.0589 18.074582,18.074582 0 0 0 0.0068,0.0635 18.074583,18.074583 0 0 1 -0.0068,-0.0635 18.074583,18.074583 0 0 1 -0.0045,-0.0589 z m 84.206243,0 a 18.074583,18.074583 0 0 1 -0.005,0.0589 18.074583,18.074583 0 0 1 -0.007,0.0635 18.074583,18.074583 0 0 0 0.007,-0.0635 18.074583,18.074583 0 0 0 0.005,-0.0589 z m -84.180973,0.26327 a 18.074582,18.074582 0 0 0 0.0045,0.0496 18.074583,18.074583 0 0 1 -0.0045,-0.0496 z m 84.155683,0 a 18.074583,18.074583 0 0 1 -0.005,0.0496 18.074583,18.074583 0 0 0 0.005,-0.0496 z m -0.0272,0.24615 a 18.074583,18.074583 0 0 1 -0.007,0.0571 18.074583,18.074583 0 0 1 -0.007,0.0635 18.074583,18.074583 0 0 0 0.007,-0.0635 18.074583,18.074583 0 0 0 0.007,-0.0571 z m -84.091789,0.0789 a 18.074582,18.074582 0 0 0 0.0045,0.0417 18.074583,18.074583 0 0 1 -0.0045,-0.0417 z m 0.02266,0.17203 a 18.074582,18.074582 0 0 0 0.0068,0.0592 18.074583,18.074583 0 0 1 -0.0068,-0.0592 z m 84.038749,0 a 18.074583,18.074583 0 0 1 -0.007,0.0592 18.074583,18.074583 0 0 0 0.007,-0.0592 z m -84.0203,0.13621 a 18.074582,18.074582 0 0 0 0.0068,0.0499 18.074583,18.074583 0 0 1 -0.0068,-0.0499 z m 84.00142,0.005 a 18.074583,18.074583 0 0 1 -0.007,0.0467 18.074583,18.074583 0 0 0 0.007,-0.0467 z m -83.984286,0.1165 a 18.074582,18.074582 0 0 0 0.0091,0.0564 18.074582,18.074582 0 0 0 0.0091,0.0632 18.074582,18.074582 0 0 0 0.0091,0.063 18.074583,18.074583 0 0 1 -0.0091,-0.063 18.074583,18.074583 0 0 1 -0.0091,-0.0632 18.074583,18.074583 0 0 1 -0.0091,-0.0564 z m 83.967626,0 a 18.074583,18.074583 0 0 1 -0.009,0.0564 18.074583,18.074583 0 0 1 -0.009,0.0632 18.074583,18.074583 0 0 1 -0.009,0.063 18.074583,18.074583 0 0 0 0.009,-0.063 18.074583,18.074583 0 0 0 0.009,-0.0632 18.074583,18.074583 0 0 0 0.009,-0.0564 z m -83.928734,0.25368 a 18.074582,18.074582 0 0 0 0.0091,0.0551 18.074582,18.074582 0 0 0 0.01133,0.063 18.074583,18.074583 0 0 1 -0.01133,-0.063 18.074583,18.074583 0 0 1 -0.0091,-0.0551 z m 83.889594,0.001 a 18.074583,18.074583 0 0 1 -0.009,0.0537 18.074583,18.074583 0 0 1 -0.0113,0.063 18.074583,18.074583 0 0 0 0.0113,-0.063 18.074583,18.074583 0 0 0 0.009,-0.0537 z m -83.848549,0.24349 a 18.074582,18.074582 0 0 0 0.01133,0.0619 18.074582,18.074582 0 0 0 0.01133,0.0628 18.074583,18.074583 0 0 1 -0.01133,-0.0628 18.074583,18.074583 0 0 1 -0.01133,-0.0619 z m 83.807729,0 a 18.074583,18.074583 0 0 1 -0.0113,0.0619 18.074583,18.074583 0 0 1 -0.0113,0.0628 18.074583,18.074583 0 0 0 0.0113,-0.0628 18.074583,18.074583 0 0 0 0.0113,-0.0619 z m -83.750117,0.31301 a 18.074582,18.074582 0 0 0 0.01133,0.0626 18.074582,18.074582 0 0 0 0.01133,0.0626 18.074583,18.074583 0 0 1 -0.01133,-0.0626 18.074583,18.074583 0 0 1 -0.01133,-0.0626 z m 83.692507,0 a 18.074583,18.074583 0 0 1 -0.0113,0.0626 18.074583,18.074583 0 0 1 -0.0113,0.0626 18.074583,18.074583 0 0 0 0.0113,-0.0626 18.074583,18.074583 0 0 0 0.0113,-0.0626 z m -83.654091,0.19333 a 18.074582,18.074582 0 0 0 0.01133,0.0571 18.074582,18.074582 0 0 0 0.0136,0.0625 18.074582,18.074582 0 0 0 0.02674,0.12488 18.074582,18.074582 0 0 0 0.0136,0.0623 18.074583,18.074583 0 0 1 -0.0136,-0.0623 18.074583,18.074583 0 0 1 -0.02674,-0.12488 18.074583,18.074583 0 0 1 -0.0136,-0.0625 18.074583,18.074583 0 0 1 -0.01133,-0.0571 z m 83.615671,0 a 18.074583,18.074583 0 0 1 -0.0113,0.0571 18.074583,18.074583 0 0 1 -0.0136,0.0625 18.074583,18.074583 0 0 1 -0.0267,0.12488 18.074583,18.074583 0 0 1 -0.0136,0.0623 18.074583,18.074583 0 0 0 0.0136,-0.0623 18.074583,18.074583 0 0 0 0.0267,-0.12488 18.074583,18.074583 0 0 0 0.0136,-0.0625 18.074583,18.074583 0 0 0 0.0113,-0.0571 z m -83.518215,0.44771 a 18.074582,18.074582 0 0 0 0.01133,0.0456 18.074582,18.074582 0 0 0 0.0136,0.0621 18.074582,18.074582 0 0 0 0.04193,0.17316 18.074583,18.074583 0 0 1 -0.04193,-0.17316 18.074583,18.074583 0 0 1 -0.0136,-0.0621 18.074583,18.074583 0 0 1 -0.01133,-0.0456 z m 83.420785,0 a 18.074583,18.074583 0 0 1 -0.0113,0.0456 18.074583,18.074583 0 0 1 -0.0136,0.0621 18.074583,18.074583 0 0 1 -0.0419,0.17316 18.074583,18.074583 0 0 0 0.0419,-0.17316 18.074583,18.074583 0 0 0 0.0136,-0.0621 18.074583,18.074583 0 0 0 0.0113,-0.0456 z m -0.0895,0.37017 a 18.074583,18.074583 0 0 1 -0.0247,0.0963 18.074583,18.074583 0 0 0 0.0247,-0.0963 z m -83.212776,0.11219 a 18.074582,18.074582 0 0 0 0.01586,0.0589 18.074582,18.074582 0 0 0 0.01587,0.0616 18.074583,18.074583 0 0 1 -0.01587,-0.0616 18.074583,18.074583 0 0 1 -0.01586,-0.0589 z m 83.184036,0 a 18.074583,18.074583 0 0 1 -0.0159,0.0589 18.074583,18.074583 0 0 1 -0.0159,0.0616 18.074583,18.074583 0 0 0 0.0159,-0.0616 18.074583,18.074583 0 0 0 0.0159,-0.0589 z m -83.135398,0.18313 a 18.074582,18.074582 0 0 0 0.03354,0.12216 18.074583,18.074583 0 0 1 -0.03354,-0.12216 z m 83.086738,0 a 18.074583,18.074583 0 0 1 -0.0335,0.12216 18.074583,18.074583 0 0 0 0.0335,-0.12216 z m -82.945177,0.4939 a 18.074582,18.074582 0 0 0 0.01813,0.0571 18.074583,18.074583 0 0 1 -0.01813,-0.0571 z m 82.803587,0 a 18.074583,18.074583 0 0 1 -0.0181,0.0571 18.074583,18.074583 0 0 0 0.0181,-0.0571 z m -82.747788,0.18131 a 18.074582,18.074582 0 0 0 0.01813,0.0587 18.074582,18.074582 0 0 0 0.0204,0.0607 18.074583,18.074583 0 0 1 -0.0204,-0.0607 18.074583,18.074583 0 0 1 -0.01813,-0.0587 z m 82.691988,0 a 18.074583,18.074583 0 0 1 -0.0181,0.0587 18.074583,18.074583 0 0 1 -0.0204,0.0607 18.074583,18.074583 0 0 0 0.0204,-0.0607 18.074583,18.074583 0 0 0 0.0181,-0.0587 z m -82.592424,0.30787 a 18.074582,18.074582 0 0 0 0.01813,0.0542 18.074582,18.074582 0 0 0 0.0204,0.0605 18.074582,18.074582 0 0 0 0.0204,0.0603 18.074582,18.074582 0 0 0 0.0204,0.0603 18.074583,18.074583 0 0 1 -0.0204,-0.0603 18.074583,18.074583 0 0 1 -0.0204,-0.0603 18.074583,18.074583 0 0 1 -0.0204,-0.0605 18.074583,18.074583 0 0 1 -0.01813,-0.0542 z m 82.492864,0 a 18.074583,18.074583 0 0 1 -0.0181,0.0542 18.074583,18.074583 0 0 1 -0.0204,0.0605 18.074583,18.074583 0 0 1 -0.0204,0.0603 18.074583,18.074583 0 0 1 -0.0204,0.0603 18.074583,18.074583 0 0 0 0.0204,-0.0603 18.074583,18.074583 0 0 0 0.0204,-0.0603 18.074583,18.074583 0 0 0 0.0204,-0.0605 18.074583,18.074583 0 0 0 0.0181,-0.0542 z m -82.389334,0.3015 a 18.074582,18.074582 0 0 0 0.0408,0.11423 18.074583,18.074583 0 0 1 -0.0408,-0.11423 z m 82.285464,0.001 a 18.074583,18.074583 0 0 1 -0.0181,0.0533 18.074583,18.074583 0 0 1 -0.0204,0.0601 18.074583,18.074583 0 0 0 0.0204,-0.0601 18.074583,18.074583 0 0 0 0.0181,-0.0533 z m -82.038899,0.65652 a 18.074582,18.074582 0 0 0 0.0204,0.0533 18.074582,18.074582 0 0 0 0.0238,0.0592 18.074582,18.074582 0 0 0 0.02425,0.0591 18.074583,18.074583 0 0 1 -0.02425,-0.0591 18.074583,18.074583 0 0 1 -0.0238,-0.0592 18.074583,18.074583 0 0 1 -0.0204,-0.0533 z m 81.792679,0 a 18.074583,18.074583 0 0 1 -0.0204,0.0533 18.074583,18.074583 0 0 1 -0.0238,0.0592 18.074583,18.074583 0 0 1 -0.024,0.0591 18.074583,18.074583 0 0 0 0.024,-0.0591 18.074583,18.074583 0 0 0 0.0238,-0.0592 18.074583,18.074583 0 0 0 0.0204,-0.0533 z m -81.699144,0.2307 a 18.074582,18.074582 0 0 0 0.02448,0.0589 18.074582,18.074582 0 0 0 0.0247,0.0589 18.074583,18.074583 0 0 1 -0.0247,-0.0589 18.074583,18.074583 0 0 1 -0.02448,-0.0589 z m 81.605654,0 a 18.074583,18.074583 0 0 1 -0.0245,0.0589 18.074583,18.074583 0 0 1 -0.0247,0.0589 18.074583,18.074583 0 0 0 0.0247,-0.0589 18.074583,18.074583 0 0 0 0.0245,-0.0589 z m -81.531542,0.17655 a 18.074582,18.074582 0 0 0 0.02516,0.0587 18.074582,18.074582 0 0 0 0.02538,0.0587 18.074582,18.074582 0 0 0 0.04578,0.10471 18.074583,18.074583 0 0 1 -0.04578,-0.10471 18.074583,18.074583 0 0 1 -0.02538,-0.0587 18.074583,18.074583 0 0 1 -0.02516,-0.0587 z m 81.457422,0 a 18.074583,18.074583 0 0 1 -0.0251,0.0587 18.074583,18.074583 0 0 1 -0.0254,0.0587 18.074583,18.074583 0 0 1 -0.0256,0.0585 18.074583,18.074583 0 0 0 0.0256,-0.0585 18.074583,18.074583 0 0 0 0.0254,-0.0587 18.074583,18.074583 0 0 0 0.0251,-0.0587 z m -81.355266,0.23493 a 18.074582,18.074582 0 0 0 0.02561,0.0576 18.074583,18.074583 0 0 1 -0.02561,-0.0576 z m 81.253426,0 a 18.074583,18.074583 0 0 1 -0.0256,0.0576 18.074583,18.074583 0 0 1 -0.0261,0.0582 18.074583,18.074583 0 0 0 0.0261,-0.0582 18.074583,18.074583 0 0 0 0.0256,-0.0576 z m -0.0782,0.17384 a 18.074583,18.074583 0 0 1 -0.0265,0.058 18.074583,18.074583 0 0 0 0.0265,-0.058 z m -80.934745,0.34683 a 18.074582,18.074582 0 0 0 0.02765,0.0576 18.074582,18.074582 0 0 0 0.0281,0.0573 18.074583,18.074583 0 0 1 -0.0281,-0.0573 18.074583,18.074583 0 0 1 -0.02765,-0.0576 z m 80.772375,0 a 18.074583,18.074583 0 0 1 -0.0279,0.0576 18.074583,18.074583 0 0 1 -0.0281,0.0573 18.074583,18.074583 0 0 0 0.0281,-0.0573 18.074583,18.074583 0 0 0 0.0279,-0.0576 z m -80.628163,0.29293 a 18.074582,18.074582 0 0 0 0.05439,0.10721 18.074583,18.074583 0 0 1 -0.05439,-0.10721 z m 80.483933,0 a 18.074583,18.074583 0 0 1 -0.0544,0.10721 18.074583,18.074583 0 0 0 0.0544,-0.10721 z m -80.311458,0.33374 a 18.074582,18.074582 0 0 0 0.02992,0.0564 18.074583,18.074583 0 0 1 -0.02992,-0.0564 z m 80.138978,0 a 18.074583,18.074583 0 0 1 -0.0299,0.0564 18.074583,18.074583 0 0 0 0.0299,-0.0564 z m -80.04304,0.17859 a 18.074582,18.074582 0 0 0 0.02516,0.046 18.074582,18.074582 0 0 0 0.03082,0.056 18.074582,18.074582 0 0 0 0.03105,0.0557 18.074583,18.074583 0 0 1 -0.03105,-0.0557 18.074583,18.074583 0 0 1 -0.03082,-0.056 18.074583,18.074583 0 0 1 -0.02516,-0.046 z m 79.94706,0 a 18.074583,18.074583 0 0 1 -0.0252,0.046 18.074583,18.074583 0 0 1 -0.0308,0.056 18.074583,18.074583 0 0 0 0.0308,-0.056 18.074583,18.074583 0 0 0 0.0252,-0.046 z m -79.758108,0.33829 a 18.074582,18.074582 0 0 0 0.02402,0.0417 18.074582,18.074582 0 0 0 0.03196,0.0553 18.074583,18.074583 0 0 1 -0.03196,-0.0553 18.074583,18.074583 0 0 1 -0.02402,-0.0417 z m 79.569178,0 a 18.074583,18.074583 0 0 1 -0.024,0.0417 18.074583,18.074583 0 0 1 -0.032,0.0553 18.074583,18.074583 0 0 0 0.032,-0.0553 18.074583,18.074583 0 0 0 0.024,-0.0417 z m -79.448763,0.20692 a 18.074582,18.074582 0 0 0 0.03264,0.0548 18.074583,18.074583 0 0 1 -0.03264,-0.0548 z m 79.328373,0 a 18.074583,18.074583 0 0 1 -0.0326,0.0548 18.074583,18.074583 0 0 0 0.0326,-0.0548 z m -79.02848,0.49009 a 18.074582,18.074582 0 0 0 0.03422,0.0537 18.074582,18.074582 0 0 0 0.03445,0.0537 18.074583,18.074583 0 0 1 -0.03445,-0.0537 18.074583,18.074583 0 0 1 -0.03422,-0.0537 z m 78.72858,0 a 18.074583,18.074583 0 0 1 -0.0342,0.0537 18.074583,18.074583 0 0 1 -0.0345,0.0537 18.074583,18.074583 0 0 0 0.0345,-0.0537 18.074583,18.074583 0 0 0 0.0342,-0.0537 z m -78.625208,0.16115 a 18.074582,18.074582 0 0 0 0.0349,0.0535 18.074583,18.074583 0 0 1 -0.0349,-0.0535 z m 78.521838,0 a 18.074583,18.074583 0 0 1 -0.0349,0.0535 18.074583,18.074583 0 0 0 0.0349,-0.0535 z m -78.415611,0.16182 a 18.074582,18.074582 0 0 0 0.03422,0.0515 18.074583,18.074583 0 0 1 -0.03422,-0.0515 z m 78.309411,0 a 18.074583,18.074583 0 0 1 -0.0344,0.0515 18.074583,18.074583 0 0 0 0.0344,-0.0515 z m -78.201257,0.16091 a 18.074582,18.074582 0 0 0 0.03354,0.0492 18.074582,18.074582 0 0 0 0.03604,0.0526 18.074582,18.074582 0 0 0 0.03649,0.0523 18.074583,18.074583 0 0 1 -0.03649,-0.0523 18.074583,18.074583 0 0 1 -0.03604,-0.0526 18.074583,18.074583 0 0 1 -0.03354,-0.0492 z m 78.093077,0 a 18.074583,18.074583 0 0 1 -0.0335,0.0492 18.074583,18.074583 0 0 1 -0.036,0.0526 18.074583,18.074583 0 0 1 -0.0363,0.0523 18.074583,18.074583 0 0 0 0.0363,-0.0523 18.074583,18.074583 0 0 0 0.036,-0.0526 18.074583,18.074583 0 0 0 0.0335,-0.0492 z m -0.29914,0.42668 a 18.074583,18.074583 0 0 1 -0.0288,0.0397 18.074583,18.074583 0 0 0 0.0288,-0.0397 z m -77.271957,0.30171 a 18.074582,18.074582 0 0 0 0.03445,0.0453 18.074582,18.074582 0 0 0 0.03876,0.0508 18.074582,18.074582 0 0 0 0.03898,0.0505 18.074582,18.074582 0 0 0 0.03921,0.0505 18.074582,18.074582 0 0 0 0.03921,0.0503 18.074583,18.074583 0 0 1 -0.03921,-0.0503 18.074583,18.074583 0 0 1 -0.03921,-0.0505 18.074583,18.074583 0 0 1 -0.03898,-0.0505 18.074583,18.074583 0 0 1 -0.03876,-0.0508 18.074583,18.074583 0 0 1 -0.03445,-0.0453 z m 77.049097,0 a 18.074583,18.074583 0 0 1 -0.0345,0.0453 18.074583,18.074583 0 0 1 -0.0388,0.0508 18.074583,18.074583 0 0 1 -0.0387,0.0505 18.074583,18.074583 0 0 1 -0.039,0.0505 18.074583,18.074583 0 0 1 -0.0392,0.0503 18.074583,18.074583 0 0 0 0.0392,-0.0503 18.074583,18.074583 0 0 0 0.039,-0.0505 18.074583,18.074583 0 0 0 0.0387,-0.0505 18.074583,18.074583 0 0 0 0.0388,-0.0508 18.074583,18.074583 0 0 0 0.0345,-0.0453 z m -76.739956,0.39771 a 18.074582,18.074582 0 0 0 0.03989,0.0499 18.074583,18.074583 0 0 1 -0.03989,-0.0499 z m 76.430856,0 a 18.074583,18.074583 0 0 1 -0.0399,0.0499 18.074583,18.074583 0 0 0 0.0399,-0.0499 z"
       style="fill:url(#linearGradient1077);fill-opacity:1;fill-rule:evenodd;stroke-width:0.792612;stroke-linecap:round;stroke-linejoin:round"
       id="path892" />
  </g>
</svg>
